<svg xmlns="http://www.w3.org/2000/svg" xmlns:xlink="http://www.w3.org/1999/xlink" width="500" zoomAndPan="magnify" viewBox="0 0 375 374.999991" height="500" preserveAspectRatio="xMidYMid meet" version="1.0"><defs><g/><clipPath id="b27ddaa647"><path d="M 92.414062 50.78125 L 282.585938 50.78125 L 282.585938 240.957031 L 92.414062 240.957031 Z M 92.414062 50.78125 " clip-rule="nonzero"/></clipPath><clipPath id="82577c365a"><path d="M 187.5 50.78125 C 134.984375 50.78125 92.414062 93.355469 92.414062 145.871094 C 92.414062 198.382812 134.984375 240.957031 187.5 240.957031 C 240.015625 240.957031 282.585938 198.382812 282.585938 145.871094 C 282.585938 93.355469 240.015625 50.78125 187.5 50.78125 " clip-rule="nonzero"/></clipPath></defs><rect x="-37.5" width="450" fill="none" y="-37.499999" height="449.999989" fill-opacity="1"/><rect x="-37.5" width="450" fill="none" y="-37.499999" height="449.999989" fill-opacity="1"/><rect x="-37.5" width="450" fill="none" y="-37.499999" height="449.999989" fill-opacity="1"/><g clip-path="url(#b27ddaa647)"><g clip-path="url(#82577c365a)"><path fill="none" d="M 92.414062 50.78125 L 282.585938 50.78125 L 282.585938 240.957031 L 92.414062 240.957031 Z M 92.414062 50.78125 " fill-opacity="1" fill-rule="nonzero"/></g></g><g fill="#0d3669" fill-opacity="1"><g transform="translate(104.16462, 297.957753)"><g><path d="M 9.390625 0.359375 C 7.734375 0.359375 6.128906 0.132812 4.578125 -0.3125 C 3.023438 -0.757812 1.78125 -1.34375 0.84375 -2.0625 L 2.484375 -5.734375 C 3.390625 -5.066406 4.460938 -4.535156 5.703125 -4.140625 C 6.941406 -3.742188 8.179688 -3.546875 9.421875 -3.546875 C 10.796875 -3.546875 11.8125 -3.75 12.46875 -4.15625 C 13.132812 -4.5625 13.46875 -5.109375 13.46875 -5.796875 C 13.46875 -6.296875 13.269531 -6.707031 12.875 -7.03125 C 12.488281 -7.363281 11.988281 -7.628906 11.375 -7.828125 C 10.769531 -8.023438 9.945312 -8.242188 8.90625 -8.484375 C 7.3125 -8.867188 6.003906 -9.25 4.984375 -9.625 C 3.960938 -10.007812 3.085938 -10.617188 2.359375 -11.453125 C 1.628906 -12.296875 1.265625 -13.414062 1.265625 -14.8125 C 1.265625 -16.039062 1.59375 -17.148438 2.25 -18.140625 C 2.90625 -19.128906 3.898438 -19.910156 5.234375 -20.484375 C 6.566406 -21.066406 8.191406 -21.359375 10.109375 -21.359375 C 11.453125 -21.359375 12.757812 -21.195312 14.03125 -20.875 C 15.3125 -20.5625 16.4375 -20.101562 17.40625 -19.5 L 15.90625 -15.8125 C 13.957031 -16.90625 12.015625 -17.453125 10.078125 -17.453125 C 8.722656 -17.453125 7.71875 -17.234375 7.0625 -16.796875 C 6.414062 -16.359375 6.09375 -15.78125 6.09375 -15.0625 C 6.09375 -14.34375 6.46875 -13.804688 7.21875 -13.453125 C 7.96875 -13.109375 9.113281 -12.765625 10.65625 -12.421875 C 12.25 -12.035156 13.554688 -11.648438 14.578125 -11.265625 C 15.597656 -10.890625 16.472656 -10.289062 17.203125 -9.46875 C 17.929688 -8.65625 18.296875 -7.550781 18.296875 -6.15625 C 18.296875 -4.945312 17.960938 -3.847656 17.296875 -2.859375 C 16.628906 -1.867188 15.625 -1.082031 14.28125 -0.5 C 12.9375 0.0703125 11.304688 0.359375 9.390625 0.359375 Z M 9.390625 0.359375 "/></g></g></g><g fill="#0d3669" fill-opacity="1"><g transform="translate(136.557051, 297.957753)"><g><path d="M 22.6875 -21 L 13.59375 0 L 8.796875 0 L -0.265625 -21 L 4.984375 -21 L 11.375 -6 L 17.84375 -21 Z M 22.6875 -21 "/></g></g></g><g fill="#0d3669" fill-opacity="1"><g transform="translate(172.188229, 297.957753)"><g><path d="M 12.65625 0.359375 C 10.476562 0.359375 8.515625 -0.109375 6.765625 -1.046875 C 5.015625 -1.984375 3.644531 -3.273438 2.65625 -4.921875 C 1.664062 -6.578125 1.171875 -8.4375 1.171875 -10.5 C 1.171875 -12.5625 1.664062 -14.414062 2.65625 -16.0625 C 3.644531 -17.71875 5.015625 -19.015625 6.765625 -19.953125 C 8.515625 -20.890625 10.476562 -21.359375 12.65625 -21.359375 C 14.84375 -21.359375 16.804688 -20.890625 18.546875 -19.953125 C 20.285156 -19.015625 21.65625 -17.71875 22.65625 -16.0625 C 23.65625 -14.414062 24.15625 -12.5625 24.15625 -10.5 C 24.15625 -8.4375 23.65625 -6.578125 22.65625 -4.921875 C 21.65625 -3.273438 20.285156 -1.984375 18.546875 -1.046875 C 16.804688 -0.109375 14.84375 0.359375 12.65625 0.359375 Z M 12.65625 -3.78125 C 13.894531 -3.78125 15.015625 -4.0625 16.015625 -4.625 C 17.015625 -5.195312 17.800781 -5.992188 18.375 -7.015625 C 18.945312 -8.035156 19.234375 -9.195312 19.234375 -10.5 C 19.234375 -11.800781 18.945312 -12.960938 18.375 -13.984375 C 17.800781 -15.003906 17.015625 -15.796875 16.015625 -16.359375 C 15.015625 -16.929688 13.894531 -17.21875 12.65625 -17.21875 C 11.414062 -17.21875 10.296875 -16.929688 9.296875 -16.359375 C 8.296875 -15.796875 7.507812 -15.003906 6.9375 -13.984375 C 6.375 -12.960938 6.09375 -11.800781 6.09375 -10.5 C 6.09375 -9.195312 6.375 -8.035156 6.9375 -7.015625 C 7.507812 -5.992188 8.296875 -5.195312 9.296875 -4.625 C 10.296875 -4.0625 11.414062 -3.78125 12.65625 -3.78125 Z M 12.65625 -3.78125 "/></g></g></g><g fill="#0d3669" fill-opacity="1"><g transform="translate(210.75826, 297.957753)"><g><path d="M 15.875 0 L 11.8125 -5.84375 L 7.34375 -5.84375 L 7.34375 0 L 2.484375 0 L 2.484375 -21 L 11.578125 -21 C 13.441406 -21 15.054688 -20.6875 16.421875 -20.0625 C 17.796875 -19.445312 18.851562 -18.566406 19.59375 -17.421875 C 20.332031 -16.285156 20.703125 -14.9375 20.703125 -13.375 C 20.703125 -11.820312 20.328125 -10.476562 19.578125 -9.34375 C 18.828125 -8.21875 17.757812 -7.351562 16.375 -6.75 L 21.09375 0 Z M 15.78125 -13.375 C 15.78125 -14.5625 15.398438 -15.46875 14.640625 -16.09375 C 13.878906 -16.726562 12.769531 -17.046875 11.3125 -17.046875 L 7.34375 -17.046875 L 7.34375 -9.71875 L 11.3125 -9.71875 C 12.769531 -9.71875 13.878906 -10.035156 14.640625 -10.671875 C 15.398438 -11.316406 15.78125 -12.21875 15.78125 -13.375 Z M 15.78125 -13.375 "/></g></g></g><g fill="#0d3669" fill-opacity="1"><g transform="translate(246.059562, 297.957753)"><g><path d="M 2.484375 -21 L 12.03125 -21 C 14.3125 -21 16.328125 -20.5625 18.078125 -19.6875 C 19.828125 -18.820312 21.1875 -17.597656 22.15625 -16.015625 C 23.125 -14.441406 23.609375 -12.601562 23.609375 -10.5 C 23.609375 -8.394531 23.125 -6.550781 22.15625 -4.96875 C 21.1875 -3.394531 19.828125 -2.171875 18.078125 -1.296875 C 16.328125 -0.429688 14.3125 0 12.03125 0 L 2.484375 0 Z M 11.796875 -3.984375 C 13.890625 -3.984375 15.5625 -4.566406 16.8125 -5.734375 C 18.0625 -6.910156 18.6875 -8.5 18.6875 -10.5 C 18.6875 -12.5 18.0625 -14.082031 16.8125 -15.25 C 15.5625 -16.425781 13.890625 -17.015625 11.796875 -17.015625 L 7.34375 -17.015625 L 7.34375 -3.984375 Z M 11.796875 -3.984375 "/></g></g></g><g fill="#ffffff" fill-opacity="1"><g transform="translate(62.010032, 161.833644)"><g><path d="M 62.34375 57.765625 C 50.945312 47.984375 41.25 36.984375 33.25 24.765625 C 25.257812 12.554688 20.160156 1.210938 17.953125 -9.265625 L 50.84375 -24.6875 C 53.132812 -14.851562 57.351562 -4.910156 63.5 5.140625 C 69.65625 15.191406 76.992188 23.867188 85.515625 31.171875 C 94.984375 39.296875 103.191406 43.890625 110.140625 44.953125 C 117.085938 46.023438 122.5625 44.234375 126.5625 39.578125 C 129.507812 36.128906 130.613281 32.128906 129.875 27.578125 C 129.144531 23.023438 127.273438 18.257812 124.265625 13.28125 C 121.253906 8.3125 116.878906 1.945312 111.140625 -5.8125 C 102.398438 -17.84375 95.648438 -28.164062 90.890625 -36.78125 C 86.128906 -45.394531 83.710938 -54.734375 83.640625 -64.796875 C 83.578125 -74.867188 87.664062 -84.707031 95.90625 -94.3125 C 103.09375 -102.6875 111.863281 -108.328125 122.21875 -111.234375 C 132.582031 -114.148438 144.035156 -113.679688 156.578125 -109.828125 C 169.128906 -105.972656 182 -98.394531 195.1875 -87.09375 C 204.375 -79.207031 212.421875 -70.394531 219.328125 -60.65625 C 226.234375 -50.914062 231.21875 -41.164062 234.28125 -31.40625 L 202.234375 -14.90625 C 195.398438 -33.875 185.328125 -49.066406 172.015625 -60.484375 C 162.671875 -68.492188 154.46875 -72.90625 147.40625 -73.71875 C 140.351562 -74.53125 134.707031 -72.460938 130.46875 -67.515625 C 126.226562 -62.578125 125.65625 -56.695312 128.75 -49.875 C 131.84375 -43.050781 137.671875 -33.9375 146.234375 -22.53125 C 154.992188 -10.507812 161.753906 -0.191406 166.515625 8.421875 C 171.273438 17.035156 173.742188 26.304688 173.921875 36.234375 C 174.109375 46.171875 170.082031 55.941406 161.84375 65.546875 C 154.769531 73.785156 146.019531 79.328125 135.59375 82.171875 C 125.164062 85.023438 113.644531 84.492188 101.03125 80.578125 C 88.414062 76.671875 75.519531 69.066406 62.34375 57.765625 Z M 62.34375 57.765625 "/></g></g></g></svg>